<svg xmlns="http://www.w3.org/2000/svg" viewBox="0 0 119 225">
  <path fill="#4eba6f" fill-rule="evenodd" d="M42 158.99688h25v25H42z"/>
  <path fill="#f15a5a" fill-rule="evenodd" d="M60 117.99688h7v25H42v-10.328z"/>
  <path fill="#2d95bf" fill-rule="evenodd" d="M42 199.99688h25v25H42z"/>
  <path class="dark-contrast" fill="#282828" d="M22 148.99688c-.01604-11.148.0003-22.76.0005-34.096-.03352-6.0935-2.4508-10.699-7.2849-13.817-4.692-3.108-9.5976-4.667-14.716-4.667v-8.5025c5.1184.0001 10.024-1.4879 14.716-4.4638 4.867-3.117 7.284-7.652 7.284-13.604v-31.246c-.033-7.369 1.687-12.868 5.938-17.217 4.239-4.336 17.062-6.377 17.062-6.377v8.5024s-7.0379 1.2046-10.024 3.6136c-2.554 2.267-3.976 6.093-3.976 11.478v31.246c-.289 10.77-5.834 18.281-16.924 22.532 11.379 3.401 16.924 10.916 16.924 22.536v26.886"/>
  <path class="dark-contrast" fill="#282828" d="M74 220.99688c7.3934 0 12.815-2.0489 17.062-6.3763 4.18-4.29 5.938-9.77 5.938-17v-31.458c.03342-6.0932 2.4505-10.699 7.2845-13.816 4.7-3.11 14.72-4.67 14.72-4.67v-8.5022s-10.024-1.4878-14.716-4.4636c-4.863-3.12-7.28-7.66-7.28-13.61v-34.098l-9 7.206v26.894c.28944 10.769 5.8344 18.28 16.924 22.531-11.375 3.4-16.92 10.91-16.92 22.53v31.458c.28944 5.2429-1.1324 8.998-3.976 11.265-2.9856 2.4089-6.3272 3.6134-10.024 3.6134"/>
  <path fill="#4eba6f" d="M71.58452 54.42302L89.6878 39.32475l15.09826 18.10328L86.68278 72.5263z"/>
  <path fill="#f15a5a" d="M34.51662 85.21782l22.33727-10.5889L67.4428 96.9662l-22.3373 10.5889z"/>
  <path fill="#2d95bf" d="M71.2853 39.96417l-11.03036 21.7622L38.49274 50.696 49.5231 28.9338z"/>
  <path class="dark-contrast" fill="#282828" d="M82.008 0c-2.145 8.6012-4.29 17.202-6.435 25.804 8.601 2.145 17.202 4.29 25.807 6.435 2.14-8.601 4.29-17.203 6.43-25.804-8.6-2.145-17.201-4.2901-25.802-6.4352zM83.1 1.8184c7.631 1.9031 15.262 3.8062 22.89 5.7093-1.9 7.6312-3.8 15.261-5.71 22.892-7.627-1.903-15.258-3.806-22.889-5.709 1.903-7.631 3.806-15.262 5.709-22.892z"/>

  <style>
    @media (prefers-color-scheme: dark) {
      .dark-contrast {
        fill: #f9fafb;
      }
    }
  </style>
</svg>
